<svg xmlns="http://www.w3.org/2000/svg" xmlns:xlink="http://www.w3.org/1999/xlink" width="1455" height="1004" viewBox="0 0 1455 1004">
  <defs>
    <path id="logo-a" d="M18.8015625,195 L18.8015625,49.3125 L67.2328125,49.3125 C81.6703847,49.3125 93.3351118,50.9202964 102.227344,54.1359375 C111.119576,57.3515786 118.81403,62.7983991 125.310937,70.4765625 C135.614114,82.6828735 140.765625,98.7608378 140.765625,118.710938 C140.765625,142.926684 134.367251,161.695246 121.570312,175.017188 C108.773374,188.339129 90.7594912,195 67.528125,195 L18.8015625,195 Z M39.4734375,179.545312 L65.953125,179.545312 C84.8532195,179.545312 98.2405856,174.459426 106.115625,164.2875 C114.581292,153.459321 118.814062,138.923529 118.814062,120.679688 C118.814062,103.551477 114.646917,90.0984864 106.3125,80.3203125 C101.25935,74.3484076 95.2219101,70.2632922 88.2,68.0648437 C81.1780899,65.8663953 70.6125705,64.7671875 56.503125,64.7671875 L39.4734375,64.7671875 L39.4734375,179.545312 Z M170.395312,195 L170.395312,88.096875 L189.7875,88.096875 L189.7875,195 L170.395312,195 Z M170.395312,68.7046875 L170.395312,49.3125 L189.7875,49.3125 L189.7875,68.7046875 L170.395312,68.7046875 Z M228.670313,195 L228.670313,88.096875 L248.0625,88.096875 L248.0625,108.178125 C257.512547,93.2155502 269.653051,85.734375 284.484375,85.734375 C298.790697,85.734375 308.535912,93.2155502 313.720313,108.178125 C322.907858,93.1499249 334.851489,85.6359375 349.551562,85.6359375 C359.00161,85.6359375 366.318724,88.408566 371.503125,93.9539063 C376.687526,99.4992465 379.279688,107.259325 379.279688,117.234375 L379.279688,195 L359.789063,195 L359.789063,120.285938 C359.789063,108.079626 354.965673,101.976562 345.31875,101.976562 C335.278075,101.976562 324.745368,109.096804 313.720313,123.3375 L313.720313,195 L294.229688,195 L294.229688,120.285938 C294.229688,108.014001 289.307862,101.878125 279.464063,101.878125 C269.685889,101.878125 259.218806,109.031178 248.0625,123.3375 L248.0625,195 L228.670313,195 Z M416.882812,195 L416.882812,88.096875 L436.275,88.096875 L436.275,195 L416.882812,195 Z M416.882812,68.7046875 L416.882812,49.3125 L436.275,49.3125 L436.275,68.7046875 L416.882812,68.7046875 Z M507.248438,197.460938 C497.404638,197.460938 489.72659,194.639091 484.214063,188.995313 C478.701535,183.351534 475.945312,175.509425 475.945312,165.46875 L475.945312,102.665625 L462.557813,102.665625 L462.557813,88.096875 L475.945312,88.096875 L475.945312,68.7046875 L495.3375,66.834375 L495.3375,88.096875 L523.29375,88.096875 L523.29375,102.665625 L495.3375,102.665625 L495.3375,161.925 C495.3375,175.903195 501.37494,182.892188 513.45,182.892188 C516.009388,182.892188 519.126544,182.465629 522.801563,181.6125 L522.801563,195 C516.829658,196.640633 511.645334,197.460938 507.248438,197.460938 Z"/>
    <path id="logo-b" d="M555.399187,195 L555.399187,88.096875 L574.791375,88.096875 L574.791375,108.178125 C582.469538,93.2155502 593.625677,85.734375 608.260125,85.734375 C610.228885,85.734375 612.296052,85.8984359 614.461687,86.2265625 L614.461687,104.339062 C611.114796,103.223432 608.1617,102.665625 605.602312,102.665625 C593.330376,102.665625 583.060166,109.949927 574.791375,124.51875 L574.791375,195 L555.399187,195 Z"/>
    <path id="logo-c" d="M639.664188,195 L639.664188,88.096875 L659.056375,88.096875 L659.056375,195 L639.664188,195 Z M639.664188,68.7046875 L639.664188,49.3125 L659.056375,49.3125 L659.056375,68.7046875 L639.664188,68.7046875 Z"/>
    <polygon id="logo-d" points="763.072 195 763.072 49.313 782.464 49.313 782.464 120.975 841.428 49.313 862.198 49.313 805.104 118.809 872.337 195 846.153 195 782.464 121.172 782.464 195"/>
    <path id="logo-e" d="M954.591188,181.415625 C942.975504,192.112553 931.786554,197.460938 921.024,197.460938 C912.164581,197.460938 904.814654,194.688309 898.974,189.142969 C893.133346,183.597629 890.213063,176.59223 890.213063,168.126563 C890.213063,156.445254 895.118482,147.471125 904.929469,141.203906 C914.740455,134.936687 928.800471,131.803125 947.109938,131.803125 L951.7365,131.803125 L951.7365,118.907813 C951.7365,106.504625 945.370939,100.303125 932.639625,100.303125 C922.402074,100.303125 911.344372,103.453093 899.466188,109.753125 L899.466188,93.7078125 C912.525628,88.3921609 924.764568,85.734375 936.183375,85.734375 C948.127185,85.734375 956.937253,88.4249731 962.613844,93.80625 C968.290435,99.1875269 971.128688,107.554631 971.128688,118.907813 L971.128688,167.339063 C971.128688,178.429743 974.541153,183.975 981.366188,183.975 C982.219317,183.975 983.466179,183.843751 985.106813,183.58125 L986.484938,194.310937 C982.088041,196.410948 977.231839,197.460938 971.916188,197.460938 C962.859892,197.460938 957.08495,192.112553 954.591188,181.415625 Z M951.7365,170.882812 L951.7365,143.221875 L945.239625,143.025 C934.608322,143.025 926.011533,145.042949 919.449,149.078906 C912.886467,153.114864 909.60525,158.41403 909.60525,164.976562 C909.60525,169.635961 911.245859,173.573421 914.527125,176.789062 C917.808391,180.004704 921.811476,181.6125 926.5365,181.6125 C934.608415,181.6125 943.008331,178.035973 951.7365,170.882812 Z M1039.149,197.460938 C1030.28958,197.460938 1019.52719,195.393771 1006.8615,191.259375 L1006.8615,173.442187 C1019.52719,179.742219 1030.55208,182.892188 1039.9365,182.892188 C1045.51465,182.892188 1050.14117,181.382828 1053.81619,178.364062 C1057.49121,175.345297 1059.32869,171.571898 1059.32869,167.04375 C1059.32869,160.415592 1054.17718,154.935959 1043.874,150.604688 L1032.55369,145.78125 C1015.81923,138.824965 1007.45213,128.817253 1007.45213,115.757812 C1007.45213,106.439016 1010.74975,99.1054955 1017.34509,93.7570312 C1023.94044,88.408567 1032.98019,85.734375 1044.46463,85.734375 C1050.43653,85.734375 1057.81927,86.5546793 1066.61306,88.1953125 L1070.649,88.9828125 L1070.649,105.126563 C1059.82082,101.910921 1051.22403,100.303125 1044.85838,100.303125 C1032.38956,100.303125 1026.15525,104.831205 1026.15525,113.8875 C1026.15525,119.728154 1030.8802,124.64998 1040.33025,128.653125 L1049.68181,132.590625 C1060.24749,137.053147 1067.72867,141.761694 1072.12556,146.716406 C1076.52246,151.671119 1078.72087,157.856213 1078.72087,165.271875 C1078.72087,174.656297 1075.0131,182.367157 1067.59744,188.404687 C1060.18178,194.442218 1050.69906,197.460938 1039.149,197.460938 Z"/>
    <polygon id="logo-f" points="8.623 81.201 8.623 73.043 57.574 73.043 57.574 81.201"/>
    <path id="logo-g" d="M10.898625,109.756 L10.898625,49.89025 L21.75825,49.89025 L21.75825,61.13575 C26.0580215,52.7567081 32.305459,48.56725 40.50075,48.56725 C41.6032555,48.56725 42.7608689,48.6591241 43.973625,48.842875 L43.973625,58.985875 C42.0993656,58.3611219 40.4456322,58.04875 39.012375,58.04875 C32.1400906,58.04875 26.3887732,62.1279592 21.75825,70.2865 L21.75825,109.756 L10.898625,109.756 Z"/>
    <path id="logo-h" d="M100.086125,107.826625 C92.8095886,110.031636 86.5805259,111.134125 81.39875,111.134125 C72.5787059,111.134125 65.3849653,108.203342 59.8173125,102.341687 C54.2496597,96.4800332 51.465875,88.8820467 51.465875,79.5475 C51.465875,70.4702046 53.918913,63.028404 58.8250625,57.221875 C63.731212,51.415346 70.0062118,48.512125 77.65025,48.512125 C84.8900362,48.512125 90.4851677,51.0845993 94.4358125,56.229625 C98.3864573,61.3746507 100.36175,68.6878276 100.36175,78.169375 L100.306625,81.532 L62.546,81.532 C64.1262579,95.7543211 71.0903133,102.865375 83.438375,102.865375 C87.9586476,102.865375 93.5078421,101.652637 100.086125,99.227125 L100.086125,107.826625 Z M63.042125,73.3735 L89.447,73.3735 C89.447,62.2381943 85.2942915,56.670625 76.98875,56.670625 C68.6464583,56.670625 63.9976298,62.2381943 63.042125,73.3735 Z M68.554625,39.030625 L81.83975,21.3355 L94.40825,21.3355 L76.713125,39.030625 L68.554625,39.030625 Z M157.526375,109.756 L157.526375,98.5105 C153.116353,106.926292 146.464669,111.134125 137.571125,111.134125 C130.368089,111.134125 124.699458,108.506526 120.565062,103.25125 C116.430667,97.9959737 114.3635,90.8114206 114.3635,81.697375 C114.3635,71.7380752 116.706289,63.7266553 121.391937,57.662875 C126.077586,51.5990947 132.242337,48.56725 139.886375,48.56725 C146.97916,48.56725 152.859102,51.2867228 157.526375,56.72575 L157.526375,22.713625 L168.441125,22.713625 L168.441125,109.756 L157.526375,109.756 Z M157.526375,64.167625 C151.903597,59.2063502 146.5749,56.72575 141.540125,56.72575 C131.139823,56.72575 125.93975,64.6820454 125.93975,80.594875 C125.93975,94.596695 130.570204,101.5975 139.83125,101.5975 C145.85828,101.5975 151.756596,98.3084079 157.526375,91.730125 L157.526375,64.167625 Z M221.030375,102.14875 C214.525592,108.13903 208.25978,111.134125 202.23275,111.134125 C197.271475,111.134125 193.155516,109.581453 189.88475,106.476062 C186.613984,103.370672 184.978625,99.4476487 184.978625,94.706875 C184.978625,88.1653423 187.72566,83.13983 193.219812,79.6301875 C198.713965,76.120545 206.587574,74.36575 216.840875,74.36575 L219.43175,74.36575 L219.43175,67.144375 C219.43175,60.1985903 215.867036,56.72575 208.7375,56.72575 C203.004471,56.72575 196.812158,58.4897324 190.160375,62.01775 L190.160375,53.032375 C197.473662,50.0556101 204.327468,48.56725 210.722,48.56725 C217.410533,48.56725 222.344172,50.0739849 225.523062,53.0875 C228.701953,56.1010151 230.291375,60.7865932 230.291375,67.144375 L230.291375,94.265875 C230.291375,100.476656 232.202356,103.582 236.024375,103.582 C236.502127,103.582 237.20037,103.508501 238.119125,103.3615 L238.890875,109.370125 C236.428613,110.546131 233.70914,111.134125 230.732375,111.134125 C225.66085,111.134125 222.426882,108.13903 221.030375,102.14875 Z M219.43175,96.250375 L219.43175,80.76025 L215.7935,80.65 C209.83997,80.65 205.025768,81.7800512 201.35075,84.0401875 C197.675732,86.3003238 195.83825,89.2678566 195.83825,92.942875 C195.83825,95.552138 196.756991,97.757116 198.5945,99.557875 C200.432009,101.358634 202.673737,102.259 205.31975,102.259 C209.840023,102.259 214.543976,100.256145 219.43175,96.250375 Z"/>
    <path id="logo-i" d="M276.605625,111.134125 C268.520585,111.134125 261.813777,108.13903 256.485,102.14875 C251.156223,96.15847 248.491875,88.6064206 248.491875,79.492375 C248.491875,69.7535763 251.128661,62.1647772 256.402312,56.72575 C261.675964,51.2867228 269.035078,48.56725 278.479875,48.56725 C283.147148,48.56725 288.365596,49.2103686 294.135375,50.496625 L294.135375,59.59225 C287.998094,57.791491 283.000144,56.891125 279.141375,56.891125 C273.592097,56.891125 269.136204,58.9766666 265.773562,63.1478125 C262.410921,67.3189584 260.729625,72.8773403 260.729625,79.823125 C260.729625,86.5484086 262.456858,91.9873542 265.911375,96.140125 C269.365892,100.292896 273.886097,102.36925 279.472125,102.36925 C284.4334,102.36925 289.541599,101.101388 294.796875,98.565625 L294.796875,107.936875 C287.77759,110.068386 281.713901,111.134125 276.605625,111.134125 Z"/>
    <path id="logo-j" d="M330.738375,111.134125 C325.225847,111.134125 320.92614,109.553891 317.839125,106.393375 C314.75211,103.232859 313.208625,98.8412781 313.208625,93.2185 L313.208625,58.04875 L305.711625,58.04875 L305.711625,49.89025 L313.208625,49.89025 L313.208625,39.030625 L324.06825,37.98325 L324.06825,49.89025 L339.72375,49.89025 L339.72375,58.04875 L324.06825,58.04875 L324.06825,91.234 C324.06825,99.0617891 327.449216,102.975625 334.21125,102.975625 C335.644507,102.975625 337.390115,102.736752 339.448125,102.259 L339.448125,109.756 C336.103858,110.674755 333.200637,111.134125 330.738375,111.134125 Z"/>
    <path id="logo-k" d="M398.438125,107.826625 C391.161589,110.031636 384.932526,111.134125 379.75075,111.134125 C370.930706,111.134125 363.736965,108.203342 358.169312,102.341687 C352.60166,96.4800332 349.817875,88.8820467 349.817875,79.5475 C349.817875,70.4702046 352.270913,63.028404 357.177063,57.221875 C362.083212,51.415346 368.358212,48.512125 376.00225,48.512125 C383.242036,48.512125 388.837168,51.0845993 392.787813,56.229625 C396.738457,61.3746507 398.71375,68.6878276 398.71375,78.169375 L398.658625,81.532 L360.898,81.532 C362.478258,95.7543211 369.442313,102.865375 381.790375,102.865375 C386.310648,102.865375 391.859842,101.652637 398.438125,99.227125 L398.438125,107.826625 Z M361.394125,73.3735 L387.799,73.3735 C387.799,62.2381943 383.646292,56.670625 375.34075,56.670625 C366.998458,56.670625 362.34963,62.2381943 361.394125,73.3735 Z M454.886125,109.756 L454.886125,98.5105 C449.116346,106.926292 442.115541,111.134125 433.8835,111.134125 C428.664974,111.134125 424.512265,109.489579 421.42525,106.200437 C418.338235,102.911296 416.79475,98.4737779 416.79475,92.88775 L416.79475,49.89025 L427.654375,49.89025 L427.654375,89.35975 C427.654375,93.8432724 428.306681,97.031303 429.611312,98.9239375 C430.915944,100.816572 433.09336,101.762875 436.143625,101.762875 C442.758658,101.762875 449.006096,97.4080435 454.886125,88.69825 L454.886125,49.89025 L465.74575,49.89025 L465.74575,109.756 L454.886125,109.756 Z M487.520125,109.756 L487.520125,49.89025 L498.37975,49.89025 L498.37975,61.13575 C502.679521,52.7567081 508.926959,48.56725 517.12225,48.56725 C518.224756,48.56725 519.382369,48.6591241 520.595125,48.842875 L520.595125,58.985875 C518.720866,58.3611219 517.067132,58.04875 515.633875,58.04875 C508.761591,58.04875 503.010273,62.1279592 498.37975,70.2865 L498.37975,109.756 L487.520125,109.756 Z"/>
    <polygon id="logo-l" points="577.349 109.756 560.206 49.89 570.845 49.89 583.964 96.25 598.131 49.89 608.991 49.89 621.394 96.25 636.443 49.89 645.76 49.89 626.245 109.756 615.331 109.756 602.652 63.396 588.319 109.756"/>
    <path id="logo-m" d="M700.383125,107.826625 C693.106589,110.031636 686.877526,111.134125 681.69575,111.134125 C672.875706,111.134125 665.681965,108.203342 660.114312,102.341687 C654.54666,96.4800332 651.762875,88.8820467 651.762875,79.5475 C651.762875,70.4702046 654.215913,63.028404 659.122062,57.221875 C664.028212,51.415346 670.303212,48.512125 677.94725,48.512125 C685.187036,48.512125 690.782168,51.0845993 694.732813,56.229625 C698.683457,61.3746507 700.65875,68.6878276 700.65875,78.169375 L700.603625,81.532 L662.843,81.532 C664.423258,95.7543211 671.387313,102.865375 683.735375,102.865375 C688.255648,102.865375 693.804842,101.652637 700.383125,99.227125 L700.383125,107.826625 Z M663.339125,73.3735 L689.744,73.3735 C689.744,62.2381943 685.591292,56.670625 677.28575,56.670625 C668.943458,56.670625 664.29463,62.2381943 663.339125,73.3735 Z M719.40125,110.4175 L719.40125,22.713625 L730.260875,22.713625 L730.260875,61.13575 C734.707647,52.7567081 741.377706,48.56725 750.27125,48.56725 C757.474286,48.56725 763.142917,51.1948487 767.277312,56.450125 C771.411708,61.7054013 773.478875,68.8899544 773.478875,78.004 C773.478875,87.9265496 771.136086,95.9287821 766.450438,102.010937 C761.764789,108.093093 755.600038,111.134125 747.956,111.134125 C740.863215,111.134125 734.964899,108.414652 730.260875,102.975625 L728.937875,110.4175 L719.40125,110.4175 Z M730.260875,95.478625 C735.846903,100.47665 741.1756,102.975625 746.247125,102.975625 C756.684177,102.975625 761.902625,95.0193296 761.902625,79.1065 C761.902625,65.0679298 757.272171,58.04875 748.011125,58.04875 C741.947345,58.04875 736.030654,61.3378421 730.260875,67.916125 L730.260875,95.478625 Z M842.054375,111.134125 C837.0931,111.134125 831.06616,109.976512 823.973375,107.66125 L823.973375,97.683625 C831.06616,101.211643 837.240099,102.975625 842.495375,102.975625 C845.619141,102.975625 848.20999,102.130383 850.268,100.439875 C852.32601,98.7493665 853.355,96.6362627 853.355,94.1005 C853.355,90.3887314 850.470154,87.3201371 844.700375,84.894625 L838.361,82.1935 C828.989703,78.2979805 824.304125,72.6936616 824.304125,65.380375 C824.304125,60.1618489 826.150794,56.0550775 829.844187,53.0599375 C833.537581,50.0647975 838.599843,48.56725 845.031125,48.56725 C848.375392,48.56725 852.509725,49.0266204 857.43425,49.945375 L859.694375,50.386375 L859.694375,59.426875 C853.630595,57.626116 848.816393,56.72575 845.251625,56.72575 C838.26909,56.72575 834.777875,59.2614746 834.777875,64.333 C834.777875,67.6037664 837.423849,70.3599888 842.715875,72.60175 L847.95275,74.80675 C853.86953,77.3057625 858.058988,79.9425486 860.52125,82.7171875 C862.983512,85.4918264 864.214625,88.9554792 864.214625,93.10825 C864.214625,98.3635263 862.138271,102.681608 857.9855,106.062625 C853.832729,109.443642 848.522407,111.134125 842.054375,111.134125 Z M927.608375,107.826625 C920.331839,110.031636 914.102776,111.134125 908.921,111.134125 C900.100956,111.134125 892.907215,108.203342 887.339563,102.341687 C881.77191,96.4800332 878.988125,88.8820467 878.988125,79.5475 C878.988125,70.4702046 881.441163,63.028404 886.347313,57.221875 C891.253462,51.415346 897.528462,48.512125 905.1725,48.512125 C912.412286,48.512125 918.007418,51.0845993 921.958062,56.229625 C925.908707,61.3746507 927.884,68.6878276 927.884,78.169375 L927.828875,81.532 L890.06825,81.532 C891.648508,95.7543211 898.612563,102.865375 910.960625,102.865375 C915.480898,102.865375 921.030092,101.652637 927.608375,99.227125 L927.608375,107.826625 Z M890.564375,73.3735 L916.96925,73.3735 C916.96925,62.2381943 912.816542,56.670625 904.511,56.670625 C896.168708,56.670625 891.51988,62.2381943 890.564375,73.3735 Z M970.054625,111.134125 C961.491832,111.134125 954.656401,108.295216 949.548125,102.617312 C944.439849,96.9394091 941.88575,89.3414226 941.88575,79.823125 C941.88575,70.1945769 944.449037,62.5782155 949.575687,56.9738125 C954.702338,51.3694095 961.657206,48.56725 970.4405,48.56725 C979.223794,48.56725 986.178662,51.3694095 991.305312,56.9738125 C996.431963,62.5782155 998.99525,70.1578272 998.99525,79.712875 C998.99525,89.4884239 996.422776,97.1690971 991.27775,102.755125 C986.132724,108.341153 979.05842,111.134125 970.054625,111.134125 Z M970.22,102.975625 C981.722808,102.975625 987.474125,95.2214525 987.474125,79.712875 C987.474125,64.3880484 981.796307,56.72575 970.4405,56.72575 C959.121443,56.72575 953.462,64.424798 953.462,79.823125 C953.462,95.2582022 959.047944,102.975625 970.22,102.975625 Z M1051.69475,131.530375 L1051.69475,49.89025 L1062.55437,49.89025 L1062.55437,61.13575 C1067.00115,52.7567081 1073.67121,48.56725 1082.56475,48.56725 C1089.76779,48.56725 1095.43642,51.1948487 1099.57081,56.450125 C1103.70521,61.7054013 1105.77238,68.8899544 1105.77238,78.004 C1105.77238,87.9265496 1103.42959,95.9287821 1098.74394,102.010937 C1094.05829,108.093093 1087.89354,111.134125 1080.2495,111.134125 C1073.15671,111.134125 1067.2584,108.414652 1062.55437,102.975625 L1062.55437,131.530375 L1051.69475,131.530375 Z M1062.55437,95.478625 C1068.1404,100.47665 1073.4691,102.975625 1078.54063,102.975625 C1088.97768,102.975625 1094.19612,95.0193296 1094.19612,79.1065 C1094.19612,65.0679298 1089.56567,58.04875 1080.30462,58.04875 C1074.24084,58.04875 1068.32415,61.3378421 1062.55437,67.916125 L1062.55437,95.478625 Z"/>
    <path id="logo-n" d="M1124.68663,109.756 L1124.68663,49.89025 L1135.54625,49.89025 L1135.54625,61.13575 C1139.84602,52.7567081 1146.09346,48.56725 1154.28875,48.56725 C1155.39126,48.56725 1156.54887,48.6591241 1157.76163,48.842875 L1157.76163,58.985875 C1155.88737,58.3611219 1154.23363,58.04875 1152.80038,58.04875 C1145.92809,58.04875 1140.17677,62.1279592 1135.54625,70.2865 L1135.54625,109.756 L1124.68663,109.756 Z"/>
    <path id="logo-o" d="M1171.57462,109.756 L1171.57462,49.89025 L1182.43425,49.89025 L1182.43425,109.756 L1171.57462,109.756 Z M1171.57462,39.030625 L1171.57462,28.171 L1182.43425,28.171 L1182.43425,39.030625 L1171.57462,39.030625 Z"/>
    <path id="logo-p" d="M1204.45062,109.756 L1204.45062,49.89025 L1215.31025,49.89025 L1215.31025,61.13575 C1221.04328,52.7567081 1228.06246,48.56725 1236.368,48.56725 C1241.54978,48.56725 1245.68411,50.2117961 1248.77112,53.5009375 C1251.85814,56.7900789 1253.40162,61.2092223 1253.40162,66.7585 L1253.40162,109.756 L1242.542,109.756 L1242.542,70.2865 C1242.542,65.8397278 1241.88969,62.670072 1240.58506,60.7774375 C1239.28043,58.884803 1237.12139,57.9385 1234.10787,57.9385 C1227.45609,57.9385 1221.19028,62.2933315 1215.31025,71.003125 L1215.31025,109.756 L1204.45062,109.756 Z"/>
    <path id="logo-q" d="M1292.27537,111.134125 C1286.76285,111.134125 1282.46314,109.553891 1279.37613,106.393375 C1276.28911,103.232859 1274.74563,98.8412781 1274.74563,93.2185 L1274.74563,58.04875 L1267.24862,58.04875 L1267.24862,49.89025 L1274.74563,49.89025 L1274.74563,39.030625 L1285.60525,37.98325 L1285.60525,49.89025 L1301.26075,49.89025 L1301.26075,58.04875 L1285.60525,58.04875 L1285.60525,91.234 C1285.60525,99.0617891 1288.98622,102.975625 1295.74825,102.975625 C1297.18151,102.975625 1298.92711,102.736752 1300.98512,102.259 L1300.98512,109.756 C1297.64086,110.674755 1294.73764,111.134125 1292.27537,111.134125 Z"/>
    <polygon id="logo-r" points="1350.034 81.201 1350.034 73.043 1398.985 73.043 1398.985 81.201"/>
  </defs>
  <g fill="none" fill-rule="evenodd" transform="translate(-8)">
    <g transform="translate(430)">
      <path fill="#1A1919" d="M15.108,352.228 C15.108,352.228 6.068,317.646 5.088,312.474 C3.065,301.805 1.795,284.258 1.795,284.258 C1.423,283.666 0.945,251.064 0.945,251.064 C10.576,248.535 28.563,276.671 28.563,276.671 C28.563,276.671 28.421,279.517 33.236,274.774 C38.052,270.032 39.09,247.436 42.06,220.354 C46.105,183.468 50.419,175.032 58.304,153.377 C65.245,134.315 72.644,120.584 78.274,110.224 C83.904,99.863 95.028,81.604 102.513,71.018 C109.999,60.432 122.462,46.206 132.092,45.889 L117.788,114.018 C117.788,114.018 117.788,119.234 121.187,120.656 C124.586,122.079 142.856,99.791 142.856,99.791 C142.856,99.791 167.5,76.555 183.645,64.226 C199.791,51.896 234.631,33.876 256.725,25.34 C278.819,16.805 323.007,-2.164 331.079,1.156 L307.63,27.667 C307.63,27.667 293.037,46.793 302.612,59.483 C306.011,63.988 352.606,39.487 368.044,35.062 C382.149,30.495 394.872,26.739 405.858,23.681 C426.731,17.87 442.729,14.188 447.922,13.011 C452.807,11.903 472.041,7.54 485.312,5.423 C502.785,2.636 559.809,0.77 568.872,7.636 C568.872,7.636 546.495,20.124 540.547,26.289 C530.548,36.651 515.828,58.24 520.79,66.359 C523.591,70.942 530.306,67.335 553.506,66.833 C559.37,66.707 574.54,66.6 590.87,69.165 C597.69,70.235 610.51,72.327 625.52,78.452 C636.29,82.843 666.74,99.08 669.71,106.904 C647.1,118.399 591.97,147.645 593.77,162.235 C594.2,165.719 595.78,167.603 595.78,167.603 C601.67,174.625 622.97,168.551 622.97,168.551 C627.22,170.686 627.78,189.417 626.16,207.2 C623.56,226.957 619.89,238.825 616.88,246.144 C615.17,250.285 613.77,254.585 611.93,258.651 C607.52,268.374 604.11,273.097 605.7,277.068 C606.22,278.376 607.41,279.369 609.38,280.254 C616.18,283.31 634.87,258.651 634.87,258.651 C641.67,265.29 639.52,291.372 639.4,301.646 C639.36,305.337 639.21,308.302 639.12,309.866 C638.68,317.5 641.91,349.383 632.04,349.383 C626.37,349.383 556.126,342.744 550.461,340.848 C544.796,338.951 550.461,266.871 550.461,266.871 C550.461,266.871 401.186,199.375 394.812,208.859 C388.438,218.343 460.698,329.236 460.698,329.236 C433.193,334.525 271.596,211.23 266.072,217.869 C260.549,224.508 318.475,312.079 318.475,312.079 C290.432,307.969 195.329,213.602 189.593,213.838 C183.857,214.076 160.418,236.837 151.779,243.951 C143.139,251.064 115.026,267.898 111.84,274.774 C108.653,281.65 111.84,301.804 111.84,301.804 L119.913,335.947 C115.664,341.164 84.01,340.215 81.46,342.112 C78.911,344.009 81.46,349.937 81.46,349.937 L15.108,352.228"/>
      <path stroke="#1A1919" d="M15.108,352.228 C15.108,352.228 6.068,317.646 5.088,312.474 C3.065,301.805 1.795,284.258 1.795,284.258 C1.423,283.666 0.945,251.064 0.945,251.064 C10.576,248.535 28.563,276.671 28.563,276.671 C28.563,276.671 28.421,279.517 33.236,274.774 C38.052,270.032 39.09,247.436 42.06,220.354 C46.105,183.468 50.419,175.032 58.304,153.377 C65.245,134.315 72.644,120.584 78.274,110.224 C83.904,99.863 95.028,81.604 102.513,71.018 C109.999,60.432 122.462,46.206 132.092,45.889 L117.788,114.018 C117.788,114.018 117.788,119.234 121.187,120.656 C124.586,122.079 142.856,99.791 142.856,99.791 C142.856,99.791 167.5,76.555 183.645,64.226 C199.791,51.896 234.631,33.876 256.725,25.34 C278.819,16.805 323.007,-2.164 331.079,1.156 L307.63,27.667 C307.63,27.667 293.037,46.793 302.612,59.483 C306.011,63.988 352.606,39.487 368.044,35.062 C382.149,30.495 394.872,26.739 405.858,23.681 C426.731,17.87 442.729,14.188 447.922,13.011 C452.807,11.903 472.041,7.54 485.312,5.423 C502.785,2.636 559.809,0.77 568.872,7.636 C568.872,7.636 546.495,20.124 540.547,26.289 C530.548,36.651 515.828,58.24 520.79,66.359 C523.591,70.942 530.306,67.335 553.506,66.833 C559.37,66.707 574.54,66.6 590.87,69.165 C597.69,70.235 610.51,72.327 625.52,78.452 C636.29,82.843 666.74,99.08 669.71,106.904 C647.1,118.399 591.97,147.645 593.77,162.235 C594.2,165.719 595.78,167.603 595.78,167.603 C601.67,174.625 622.97,168.551 622.97,168.551 C627.22,170.686 627.78,189.417 626.16,207.2 C623.56,226.957 619.89,238.825 616.88,246.144 C615.17,250.285 613.77,254.585 611.93,258.651 C607.52,268.374 604.11,273.097 605.7,277.068 C606.22,278.376 607.41,279.369 609.38,280.254 C616.18,283.31 634.87,258.651 634.87,258.651 C641.67,265.29 639.52,291.372 639.4,301.646 C639.36,305.337 639.21,308.302 639.12,309.866 C638.68,317.5 641.91,349.383 632.04,349.383 C626.37,349.383 556.126,342.744 550.461,340.848 C544.796,338.951 550.461,266.871 550.461,266.871 C550.461,266.871 401.186,199.375 394.812,208.859 C388.438,218.343 460.698,329.236 460.698,329.236 C433.193,334.525 271.596,211.23 266.072,217.869 C260.549,224.508 318.475,312.079 318.475,312.079 C290.432,307.969 195.329,213.602 189.593,213.838 C183.857,214.076 160.418,236.837 151.779,243.951 C143.139,251.064 115.026,267.898 111.84,274.774 C108.653,281.65 111.84,301.804 111.84,301.804 L119.913,335.947 C115.664,341.164 84.01,340.215 81.46,342.112 C78.911,344.009 81.46,349.937 81.46,349.937 L15.108,352.228 Z"/>
    </g>
    <path fill="#00A3DA" fill-rule="nonzero" d="M1007.33,487.603 C1007.33,512.641 988.976,533.126 966.541,533.126 L854.231,533.126 C831.798,533.126 813.442,512.641 813.442,487.603 L813.442,424.308 C813.442,399.27 831.798,378.784 854.231,378.784 L966.541,378.784 C988.976,378.784 1007.33,399.27 1007.33,424.308 L1007.33,487.603 Z M710.602,487.603 C710.602,512.641 692.247,533.126 669.813,533.126 L557.503,533.126 C535.069,533.126 516.714,512.641 516.714,487.603 L516.714,424.308 C516.714,399.27 535.069,378.784 557.503,378.784 L669.813,378.784 C692.247,378.784 710.602,399.27 710.602,424.308 L710.602,487.603 Z M1072.76,374.674 C1064.26,369.3 1025.75,371.221 1021.78,371.513 C1017.8,371.805 1008.78,360.132 991.468,360.132 L835.678,360.132 C820.546,360.132 807.279,369.459 800.24,383.21 C800.238,383.211 794.939,387.492 791.189,387.874 C787.404,388.259 740.486,388.584 734.255,388.268 C728.023,387.952 723.666,382.924 723.666,382.924 L723.667,382.943 C716.593,369.339 703.401,360.132 688.367,360.132 L532.577,360.132 C515.265,360.132 506.242,371.805 502.269,371.513 C498.295,371.221 459.78,369.3 451.282,374.674 C448.745,376.279 449.242,407.671 452.611,408.417 C472.618,412.844 481.338,409.812 486.406,409.45 C491.475,409.086 487.906,483.491 492.921,500.814 C498.869,521.363 518.98,547.287 534.276,551.712 C549.572,556.138 677.921,558.84 699.414,549.499 C712.852,543.66 724.656,521.242 729.156,509.982 C729.156,509.982 740.396,486.948 742.186,479.273 L742.186,451.396 C742.186,440.703 750.025,431.954 759.605,431.954 L763.43,431.954 C773.011,431.954 780.851,440.703 780.851,451.396 L780.845,479.316 C782.115,486.091 795.185,510.758 795.271,510.923 C800.03,522.446 811.556,543.818 824.631,549.499 C846.123,558.84 974.473,556.138 989.769,551.712 C1005.06,547.287 1025.17,521.363 1031.12,500.814 C1036.14,483.491 1032.57,409.086 1037.64,409.45 C1042.71,409.812 1051.43,412.844 1071.43,408.417 C1074.8,407.671 1075.3,376.279 1072.76,374.674 Z"/>
    <path fill="#00A3DA" fill-rule="nonzero" d="M1006.83,487.603 L1006.83,424.308 C1006.83,399.534174 988.686445,379.284 966.541,379.284 L854.231,379.284 C832.086861,379.284 813.942,399.534947 813.942,424.308 L813.942,487.603 C813.942,512.375861 832.086687,532.626 854.231,532.626 L966.541,532.626 C988.686619,532.626 1006.83,512.376634 1006.83,487.603 Z M1007.83,487.603 C1007.83,512.905933 989.264873,533.626 966.541,533.626 L854.231,533.626 C831.508442,533.626 812.942,512.905167 812.942,487.603 L812.942,424.308 C812.942,399.005646 831.508608,378.284 854.231,378.284 L966.541,378.284 C989.264707,378.284 1007.83,399.00488 1007.83,424.308 L1007.83,487.603 Z M710.102,487.603 L710.102,424.308 C710.102,399.53456 691.957792,379.284 669.813,379.284 L557.503,379.284 C535.358208,379.284 517.214,399.53456 517.214,424.308 L517.214,487.603 C517.214,512.376247 535.358034,532.626 557.503,532.626 L669.813,532.626 C691.957966,532.626 710.102,512.376247 710.102,487.603 Z M711.102,487.603 C711.102,512.90555 692.536216,533.626 669.813,533.626 L557.503,533.626 C534.779784,533.626 516.214,512.90555 516.214,487.603 L516.214,424.308 C516.214,399.005263 534.77995,378.284 557.503,378.284 L669.813,378.284 C692.53605,378.284 711.102,399.005263 711.102,424.308 L711.102,487.603 Z M1074.81105,391.881667 C1074.53779,401.608032 1073.46205,408.479279 1071.53806,408.905184 C1059.26632,411.621533 1051.07206,411.819434 1042.47984,410.602376 C1041.87109,410.516149 1040.02211,410.238773 1039.78092,410.203958 C1038.84968,410.069536 1038.19304,409.99076 1037.60419,409.948716 C1036.93266,409.900504 1036.14213,413.962188 1035.68332,421.23022 C1035.29929,427.313623 1035.12108,433.893714 1034.85796,448.688714 C1034.76255,454.053916 1034.75058,454.717124 1034.7079,456.927429 C1034.23138,481.605968 1033.47392,494.48748 1031.60027,500.953064 C1025.42815,522.269199 1004.97719,547.831479 989.907977,552.192297 C982.242392,554.410386 946.506263,556.206506 909.524333,556.268124 C866.969131,556.339028 834.233404,554.217646 824.431749,549.957584 C813.366921,545.14999 801.956912,528.420754 794.828329,511.155838 C794.782505,511.069455 794.439931,510.418184 794.181639,509.924203 C793.680394,508.965577 793.126799,507.89844 792.531507,506.740306 C790.83425,503.438311 789.140472,500.064249 787.55886,496.803228 C787.176304,496.014461 786.804283,495.240358 786.443768,494.482577 C783.023694,487.293779 780.844438,482.026784 780.345,479.315893 L780.351,451.396 C780.351,440.967834 772.722041,432.454 763.43,432.454 L759.605,432.454 C750.314008,432.454 742.686,440.967785 742.686,451.396 L742.686,479.273 L742.672932,479.386565 C742.01909,482.190051 740.114923,487.121755 737.283465,493.600347 C736.948627,494.366482 736.60288,495.149346 736.247165,495.947197 C734.794188,499.206145 733.237707,502.576677 731.681256,505.866768 C731.136514,507.018265 730.630663,508.077506 730.176654,509.020462 C730.017713,509.350574 729.876593,509.642598 729.754912,509.893529 C729.63153,510.147631 729.63153,510.147631 729.620295,510.167553 C722.690797,527.506698 710.928953,545.040752 699.613295,549.957565 C689.811138,554.217647 657.075323,556.339028 614.520292,556.268124 C577.538518,556.206506 541.802614,554.410387 534.137052,552.192306 C519.063241,547.831583 498.610914,522.269668 492.440721,500.95304 C490.568981,494.487605 489.812675,481.608781 489.33687,456.927414 C489.294334,454.720953 489.28237,454.057008 489.187293,448.703233 C488.924444,433.902346 488.74639,427.320943 488.362498,421.23525 C487.903831,413.964199 487.113319,409.900496 486.441624,409.948729 C485.853237,409.990757 485.196858,410.069525 484.265766,410.203956 C484.025828,410.238598 482.176391,410.516084 481.567242,410.602375 C472.975606,411.819447 464.778946,411.621527 452.502903,408.905175 C450.579408,408.479254 449.504639,401.608818 449.231946,391.881637 C448.973914,382.677409 449.58286,375.157282 451.01476,374.251409 C454.876257,371.80946 464.675978,370.659838 478.465073,370.468798 C487.32248,370.346084 497.725261,370.677789 502.305649,371.014345 C503.065263,371.070174 504.157667,370.584495 506.041682,369.39583 C506.416012,369.159658 506.81204,368.903196 507.384358,368.527931 C507.538594,368.426799 507.7425,368.292848 508.113565,368.049099 C508.413419,367.852255 508.648478,367.698425 508.881714,367.546604 C510.17932,366.70195 511.240832,366.039242 512.352534,365.392935 C518.753431,361.671667 525.082972,359.632 532.577,359.632 L688.367,359.632 C703.184892,359.632 716.694538,368.52948 724.059584,382.614473 C724.094819,382.654222 724.155297,382.720215 724.240154,382.80917 C724.408429,382.985571 724.607328,383.182948 724.835451,383.396056 C725.489567,384.007119 726.244244,384.618897 727.087941,385.18963 C729.30909,386.692164 731.731154,387.639383 734.280325,387.768642 C740.486608,388.083388 787.381379,387.758721 791.138329,387.376574 C791.883325,387.300684 792.745488,387.051561 793.698928,386.649843 C794.617498,386.262817 795.596218,385.745058 796.605871,385.128804 C797.69653,384.463108 799.266058,383.347922 799.823511,382.92641 C807.145825,368.667522 820.745723,359.632 835.678,359.632 L991.468,359.632 C998.961892,359.632 1005.29043,361.671449 1011.69183,365.392933 C1012.80338,366.039137 1013.86457,366.701594 1015.1629,367.546585 C1015.39602,367.698312 1015.63082,367.851943 1015.93117,368.049073 C1016.30231,368.292819 1016.50497,368.425923 1016.66054,368.527898 C1017.23249,368.90282 1017.62902,369.159528 1018.00364,369.395781 C1019.88832,370.584381 1020.98201,371.070202 1021.74332,371.014347 C1026.31751,370.677908 1036.72171,370.34608 1045.57818,370.468798 C1059.36549,370.659839 1069.16477,371.809462 1073.02714,374.251348 C1074.4605,375.157243 1075.06967,382.676684 1074.81105,391.881667 Z M741.686,451.396 C741.686,440.438493 749.735744,431.454 759.605,431.454 L763.43,431.454 C773.300276,431.454 781.351,440.43852 781.351,451.396107 L781.33644,479.223878 C781.80479,481.72236 783.969232,486.953552 787.346783,494.052967 C787.706195,494.80843 788.077132,495.580279 788.458619,496.36684 C790.03651,499.620188 791.726929,502.98756 793.420894,506.283152 C794.015079,507.439131 794.567607,508.504212 795.06781,509.460843 C795.363916,510.027144 795.772894,510.804149 795.733138,510.732137 C802.786492,527.810473 814.080221,544.3696 824.830303,549.040439 C834.444436,553.218999 867.1545,555.338718 909.522667,555.268126 C946.384703,555.206707 982.095532,553.411858 989.63001,551.231707 C1004.32255,546.979891 1024.55432,521.691584 1030.63976,500.674832 C1032.47686,494.335354 1033.23404,481.458681 1033.70809,456.908124 C1033.75075,454.698559 1033.76272,454.035475 1033.85812,448.670933 C1034.12154,433.858918 1034.29995,427.271762 1034.68531,421.167218 C1035.22057,412.687997 1035.97167,408.828935 1037.67561,408.95127 C1038.29325,408.995369 1038.97075,409.076646 1039.92379,409.214216 C1040.16918,409.249637 1042.01638,409.526747 1042.62008,409.612259 C1051.09807,410.813136 1059.17233,410.618133 1071.32193,407.928818 C1074.01442,407.332796 1074.87777,376.603653 1072.49291,375.096685 C1068.85633,372.797511 1059.13224,371.656703 1045.56432,371.468702 C1036.73768,371.346397 1026.36251,371.6773 1021.81659,372.01166 C1020.75981,372.089192 1019.54204,371.548253 1017.4702,370.24162 C1017.08954,370.001552 1016.68876,369.742102 1016.11231,369.364225 C1015.95631,369.261965 1015.75318,369.128557 1015.38247,368.88509 C1015.0831,368.688605 1014.8493,368.535623 1014.61742,368.38471 C1013.33199,367.548114 1012.2841,366.893957 1011.18924,366.257455 C1004.92918,362.618142 998.766056,360.632 991.468,360.632 L835.678,360.632 C821.117295,360.632 807.835776,369.468621 800.685077,383.43783 L800.61033,383.583852 L800.463607,383.657214 C800.75676,383.510637 798.599549,385.083495 797.126855,385.982371 C796.07768,386.622747 795.056321,387.163063 794.087206,387.571385 C793.049425,388.008639 792.095668,388.284228 791.239598,388.371433 C787.424807,388.759463 740.482409,389.08446 734.22968,388.767358 C731.478307,388.627847 728.888725,387.615115 726.527634,386.017915 C725.672851,385.439682 724.905395,384.822013 724.233964,384.202174 L724.287542,385.220142 L723.223391,383.173674 C716.035653,369.350946 702.830608,360.632 688.367,360.632 L532.577,360.632 C525.278802,360.632 519.114685,362.61836 512.855136,366.257453 C511.760138,366.894048 510.711943,367.548443 509.427251,368.384691 C509.195272,368.535694 508.961212,368.688869 508.662347,368.885064 C508.291718,369.128527 508.087354,369.262779 507.932689,369.364192 C507.35588,369.742402 506.955636,370.001594 506.575278,370.24157 C504.503874,371.548462 503.287602,372.089212 502.23236,372.011656 C497.680301,371.677181 487.306521,371.346401 478.478927,371.468702 C464.909364,371.656701 455.184828,372.797503 451.549316,375.096542 C449.166639,376.603912 450.028099,407.332955 452.719023,407.928808 C464.872901,410.618128 472.949573,410.813151 481.426985,409.61226 C482.031086,409.526684 483.878729,409.249467 484.122868,409.214219 C485.075764,409.076639 485.752992,408.99537 486.370188,408.951284 C488.074412,408.828905 488.825408,412.689473 489.360514,421.172294 C489.745739,427.279119 489.923985,433.867582 490.187135,448.685476 C490.282201,454.038595 490.294163,454.702416 490.336685,456.908139 C490.810024,481.461605 491.566048,494.335636 493.401285,500.674979 C499.484775,521.692068 519.717846,546.97995 534.414977,551.231703 C541.949474,553.41186 577.660078,555.206707 614.521958,555.268126 C656.889968,555.338718 689.600115,553.219 699.214741,549.04042 C710.210661,544.262538 721.854749,526.90403 728.706646,509.762727 C728.732302,509.71015 728.732302,509.71015 728.855122,509.457204 C728.976404,509.207098 729.11712,508.915911 729.27565,508.586651 C729.728701,507.645685 730.233574,506.588492 730.777304,505.439133 C732.330773,502.155348 733.884212,498.791401 735.333828,495.539993 C735.688567,494.744332 736.033324,493.963708 736.367156,493.199876 C739.154585,486.822025 741.038345,481.94887 741.686,479.215025 L741.686,451.396 Z"/>
    <path fill="#1A1919" fill-rule="nonzero" d="M642.905,481.53 C642.905,498.553 629.398,512.353 612.738,512.353 C596.078,512.353 582.571,498.553 582.571,481.53 C582.571,464.506 596.078,450.706 612.738,450.706 C629.398,450.706 642.905,464.506 642.905,481.53 M937.773,481.53 C937.773,498.553 924.268,512.353 907.607,512.353 C890.946,512.353 877.44,498.553 877.44,481.53 C877.44,464.506 890.946,450.706 907.607,450.706 C924.268,450.706 937.773,464.506 937.773,481.53"/>
    <g transform="translate(0 631)">
      <g transform="translate(220)">
        <use fill="#000" xlink:href="#logo-a"/>
        <use fill="#32433E" xlink:href="#logo-a"/>
        <use fill="#000" xlink:href="#logo-b"/>
        <use fill="#32433E" xlink:href="#logo-b"/>
        <use fill="#000" xlink:href="#logo-c"/>
        <use fill="#32433E" xlink:href="#logo-c"/>
        <use fill="#000" xlink:href="#logo-d"/>
        <use fill="#32433E" xlink:href="#logo-d"/>
        <use fill="#000" xlink:href="#logo-e"/>
        <use fill="#32433E" xlink:href="#logo-e"/>
      </g>
      <g transform="translate(0 241)">
        <use fill="#000" xlink:href="#logo-f"/>
        <use fill="#32433E" xlink:href="#logo-f"/>
      </g>
      <g transform="translate(64 241)">
        <use fill="#000" xlink:href="#logo-g"/>
        <use fill="#009EE2" xlink:href="#logo-g"/>
        <use fill="#000" xlink:href="#logo-h"/>
        <use fill="#009EE2" xlink:href="#logo-h"/>
        <use fill="#000" xlink:href="#logo-i"/>
        <use fill="#009EE2" xlink:href="#logo-i"/>
        <use fill="#000" xlink:href="#logo-j"/>
        <use fill="#009EE2" xlink:href="#logo-j"/>
        <use fill="#000" xlink:href="#logo-k"/>
        <use fill="#009EE2" xlink:href="#logo-k"/>
        <use fill="#000" xlink:href="#logo-l"/>
        <use fill="#009EE2" xlink:href="#logo-l"/>
        <use fill="#000" xlink:href="#logo-m"/>
        <use fill="#009EE2" xlink:href="#logo-m"/>
        <use fill="#000" xlink:href="#logo-n"/>
        <use fill="#009EE2" xlink:href="#logo-n"/>
        <use fill="#000" xlink:href="#logo-o"/>
        <use fill="#009EE2" xlink:href="#logo-o"/>
        <use fill="#000" xlink:href="#logo-p"/>
        <use fill="#009EE2" xlink:href="#logo-p"/>
        <use fill="#000" xlink:href="#logo-q"/>
        <use fill="#009EE2" xlink:href="#logo-q"/>
        <use fill="#000" xlink:href="#logo-r"/>
        <use fill="#32433E" xlink:href="#logo-r"/>
      </g>
    </g>
  </g>
</svg>
