<svg xmlns="http://www.w3.org/2000/svg" width="1487" height="1006" viewBox="0 0 1487 1006">
  <g fill="none" fill-rule="evenodd">
    <g transform="translate(430)">
      <path fill="#1A1919" d="M15.108,352.228 C15.108,352.228 6.068,317.646 5.088,312.474 C3.065,301.805 1.795,284.258 1.795,284.258 C1.423,283.666 0.945,251.064 0.945,251.064 C10.576,248.535 28.563,276.671 28.563,276.671 C28.563,276.671 28.421,279.517 33.236,274.774 C38.052,270.032 39.09,247.436 42.06,220.354 C46.105,183.468 50.419,175.032 58.304,153.377 C65.245,134.315 72.644,120.584 78.274,110.224 C83.904,99.863 95.028,81.604 102.513,71.018 C109.999,60.432 122.462,46.206 132.092,45.889 L117.788,114.018 C117.788,114.018 117.788,119.234 121.187,120.656 C124.586,122.079 142.856,99.791 142.856,99.791 C142.856,99.791 167.5,76.555 183.645,64.226 C199.791,51.896 234.631,33.876 256.725,25.34 C278.819,16.805 323.007,-2.164 331.079,1.156 L307.63,27.667 C307.63,27.667 293.037,46.793 302.612,59.483 C306.011,63.988 352.606,39.487 368.044,35.062 C382.149,30.495 394.872,26.739 405.858,23.681 C426.731,17.87 442.729,14.188 447.922,13.011 C452.807,11.903 472.041,7.54 485.312,5.423 C502.785,2.636 559.809,0.77 568.872,7.636 C568.872,7.636 546.495,20.124 540.547,26.289 C530.548,36.651 515.828,58.24 520.79,66.359 C523.591,70.942 530.306,67.335 553.506,66.833 C559.37,66.707 574.54,66.6 590.87,69.165 C597.69,70.235 610.51,72.327 625.52,78.452 C636.29,82.843 666.74,99.08 669.71,106.904 C647.1,118.399 591.97,147.645 593.77,162.235 C594.2,165.719 595.78,167.603 595.78,167.603 C601.67,174.625 622.97,168.551 622.97,168.551 C627.22,170.686 627.78,189.417 626.16,207.2 C623.56,226.957 619.89,238.825 616.88,246.144 C615.17,250.285 613.77,254.585 611.93,258.651 C607.52,268.374 604.11,273.097 605.7,277.068 C606.22,278.376 607.41,279.369 609.38,280.254 C616.18,283.31 634.87,258.651 634.87,258.651 C641.67,265.29 639.52,291.372 639.4,301.646 C639.36,305.337 639.21,308.302 639.12,309.866 C638.68,317.5 641.91,349.383 632.04,349.383 C626.37,349.383 556.126,342.744 550.461,340.848 C544.796,338.951 550.461,266.871 550.461,266.871 C550.461,266.871 401.186,199.375 394.812,208.859 C388.438,218.343 460.698,329.236 460.698,329.236 C433.193,334.525 271.596,211.23 266.072,217.869 C260.549,224.508 318.475,312.079 318.475,312.079 C290.432,307.969 195.329,213.602 189.593,213.838 C183.857,214.076 160.418,236.837 151.779,243.951 C143.139,251.064 115.026,267.898 111.84,274.774 C108.653,281.65 111.84,301.804 111.84,301.804 L119.913,335.947 C115.664,341.164 84.01,340.215 81.46,342.112 C78.911,344.009 81.46,349.937 81.46,349.937 L15.108,352.228"/>
      <path stroke="#1A1919" d="M15.108,352.228 C15.108,352.228 6.068,317.646 5.088,312.474 C3.065,301.805 1.795,284.258 1.795,284.258 C1.423,283.666 0.945,251.064 0.945,251.064 C10.576,248.535 28.563,276.671 28.563,276.671 C28.563,276.671 28.421,279.517 33.236,274.774 C38.052,270.032 39.09,247.436 42.06,220.354 C46.105,183.468 50.419,175.032 58.304,153.377 C65.245,134.315 72.644,120.584 78.274,110.224 C83.904,99.863 95.028,81.604 102.513,71.018 C109.999,60.432 122.462,46.206 132.092,45.889 L117.788,114.018 C117.788,114.018 117.788,119.234 121.187,120.656 C124.586,122.079 142.856,99.791 142.856,99.791 C142.856,99.791 167.5,76.555 183.645,64.226 C199.791,51.896 234.631,33.876 256.725,25.34 C278.819,16.805 323.007,-2.164 331.079,1.156 L307.63,27.667 C307.63,27.667 293.037,46.793 302.612,59.483 C306.011,63.988 352.606,39.487 368.044,35.062 C382.149,30.495 394.872,26.739 405.858,23.681 C426.731,17.87 442.729,14.188 447.922,13.011 C452.807,11.903 472.041,7.54 485.312,5.423 C502.785,2.636 559.809,0.77 568.872,7.636 C568.872,7.636 546.495,20.124 540.547,26.289 C530.548,36.651 515.828,58.24 520.79,66.359 C523.591,70.942 530.306,67.335 553.506,66.833 C559.37,66.707 574.54,66.6 590.87,69.165 C597.69,70.235 610.51,72.327 625.52,78.452 C636.29,82.843 666.74,99.08 669.71,106.904 C647.1,118.399 591.97,147.645 593.77,162.235 C594.2,165.719 595.78,167.603 595.78,167.603 C601.67,174.625 622.97,168.551 622.97,168.551 C627.22,170.686 627.78,189.417 626.16,207.2 C623.56,226.957 619.89,238.825 616.88,246.144 C615.17,250.285 613.77,254.585 611.93,258.651 C607.52,268.374 604.11,273.097 605.7,277.068 C606.22,278.376 607.41,279.369 609.38,280.254 C616.18,283.31 634.87,258.651 634.87,258.651 C641.67,265.29 639.52,291.372 639.4,301.646 C639.36,305.337 639.21,308.302 639.12,309.866 C638.68,317.5 641.91,349.383 632.04,349.383 C626.37,349.383 556.126,342.744 550.461,340.848 C544.796,338.951 550.461,266.871 550.461,266.871 C550.461,266.871 401.186,199.375 394.812,208.859 C388.438,218.343 460.698,329.236 460.698,329.236 C433.193,334.525 271.596,211.23 266.072,217.869 C260.549,224.508 318.475,312.079 318.475,312.079 C290.432,307.969 195.329,213.602 189.593,213.838 C183.857,214.076 160.418,236.837 151.779,243.951 C143.139,251.064 115.026,267.898 111.84,274.774 C108.653,281.65 111.84,301.804 111.84,301.804 L119.913,335.947 C115.664,341.164 84.01,340.215 81.46,342.112 C78.911,344.009 81.46,349.937 81.46,349.937 L15.108,352.228 Z"/>
    </g>
    <path fill="#00A3DA" d="M1007.33,487.603 C1007.33,512.641 988.976,533.126 966.541,533.126 L854.231,533.126 C831.798,533.126 813.442,512.641 813.442,487.603 L813.442,424.308 C813.442,399.27 831.798,378.784 854.231,378.784 L966.541,378.784 C988.976,378.784 1007.33,399.27 1007.33,424.308 L1007.33,487.603 Z M710.602,487.603 C710.602,512.641 692.247,533.126 669.813,533.126 L557.503,533.126 C535.069,533.126 516.714,512.641 516.714,487.603 L516.714,424.308 C516.714,399.27 535.069,378.784 557.503,378.784 L669.813,378.784 C692.247,378.784 710.602,399.27 710.602,424.308 L710.602,487.603 Z M1072.76,374.674 C1064.26,369.3 1025.75,371.221 1021.78,371.513 C1017.8,371.805 1008.78,360.132 991.468,360.132 L835.678,360.132 C820.546,360.132 807.279,369.459 800.24,383.21 C800.238,383.211 794.939,387.492 791.189,387.874 C787.404,388.259 740.486,388.584 734.255,388.268 C728.023,387.952 723.666,382.924 723.666,382.924 L723.667,382.943 C716.593,369.339 703.401,360.132 688.367,360.132 L532.577,360.132 C515.265,360.132 506.242,371.805 502.269,371.513 C498.295,371.221 459.78,369.3 451.282,374.674 C448.745,376.279 449.242,407.671 452.611,408.417 C472.618,412.844 481.338,409.812 486.406,409.45 C491.475,409.086 487.906,483.491 492.921,500.814 C498.869,521.363 518.98,547.287 534.276,551.712 C549.572,556.138 677.921,558.84 699.414,549.499 C712.852,543.66 724.656,521.242 729.156,509.982 C729.156,509.982 740.396,486.948 742.186,479.273 L742.186,451.396 C742.186,440.703 750.025,431.954 759.605,431.954 L763.43,431.954 C773.011,431.954 780.851,440.703 780.851,451.396 L780.845,479.316 C782.115,486.091 795.185,510.758 795.271,510.923 C800.03,522.446 811.556,543.818 824.631,549.499 C846.123,558.84 974.473,556.138 989.769,551.712 C1005.06,547.287 1025.17,521.363 1031.12,500.814 C1036.14,483.491 1032.57,409.086 1037.64,409.45 C1042.71,409.812 1051.43,412.844 1071.43,408.417 C1074.8,407.671 1075.3,376.279 1072.76,374.674 Z"/>
    <path stroke="#00A3DA" d="M1007.33,487.603 C1007.33,512.641 988.976,533.126 966.541,533.126 L854.231,533.126 C831.798,533.126 813.442,512.641 813.442,487.603 L813.442,424.308 C813.442,399.27 831.798,378.784 854.231,378.784 L966.541,378.784 C988.976,378.784 1007.33,399.27 1007.33,424.308 L1007.33,487.603 Z M710.602,487.603 C710.602,512.641 692.247,533.126 669.813,533.126 L557.503,533.126 C535.069,533.126 516.714,512.641 516.714,487.603 L516.714,424.308 C516.714,399.27 535.069,378.784 557.503,378.784 L669.813,378.784 C692.247,378.784 710.602,399.27 710.602,424.308 L710.602,487.603 Z M1072.76,374.674 C1064.26,369.3 1025.75,371.221 1021.78,371.513 C1017.8,371.805 1008.78,360.132 991.468,360.132 L835.678,360.132 C820.546,360.132 807.279,369.459 800.24,383.21 C800.238,383.211 794.939,387.492 791.189,387.874 C787.404,388.259 740.486,388.584 734.255,388.268 C728.023,387.952 723.666,382.924 723.666,382.924 L723.667,382.943 C716.593,369.339 703.401,360.132 688.367,360.132 L532.577,360.132 C515.265,360.132 506.242,371.805 502.269,371.513 C498.295,371.221 459.78,369.3 451.282,374.674 C448.745,376.279 449.242,407.671 452.611,408.417 C472.618,412.844 481.338,409.812 486.406,409.45 C491.475,409.086 487.906,483.491 492.921,500.814 C498.869,521.363 518.98,547.287 534.276,551.712 C549.572,556.138 677.921,558.84 699.414,549.499 C712.852,543.66 724.656,521.242 729.156,509.982 C729.156,509.982 740.396,486.948 742.186,479.273 L742.186,451.396 C742.186,440.703 750.025,431.954 759.605,431.954 L763.43,431.954 C773.011,431.954 780.851,440.703 780.851,451.396 L780.845,479.316 C782.115,486.091 795.185,510.758 795.271,510.923 C800.03,522.446 811.556,543.818 824.631,549.499 C846.123,558.84 974.473,556.138 989.769,551.712 C1005.06,547.287 1025.17,521.363 1031.12,500.814 C1036.14,483.491 1032.57,409.086 1037.64,409.45 C1042.71,409.812 1051.43,412.844 1071.43,408.417 C1074.8,407.671 1075.3,376.279 1072.76,374.674 Z"/>
    <path fill="#1A1919" d="M642.905 481.53C642.905 498.553 629.398 512.353 612.738 512.353 596.078 512.353 582.571 498.553 582.571 481.53 582.571 464.506 596.078 450.706 612.738 450.706 629.398 450.706 642.905 464.506 642.905 481.53M937.773 481.53C937.773 498.553 924.268 512.353 907.607 512.353 890.946 512.353 877.44 498.553 877.44 481.53 877.44 464.506 890.946 450.706 907.607 450.706 924.268 450.706 937.773 464.506 937.773 481.53"/>
    <g font-family="LucidaGrande, Lucida Grande" transform="translate(0 631)">
      <text fill="#32433E" font-size="201.6" letter-spacing=".968">
        <tspan x="220" y="195">Dimit</tspan> <tspan x="756.007" y="195" letter-spacing="1.774">r</tspan> <tspan x="840.272" y="195">i </tspan> <tspan x="964.27" y="195" letter-spacing="4.193">K</tspan> <tspan x="1100.074" y="195">as</tspan>
      </text>
      <text fill="#32433E" font-size="112.896" letter-spacing=".242">
        <tspan x=".464" y="350.756">- </tspan>
      </text>
      <text font-size="112.896" letter-spacing="-.887">
        <tspan x="64.039" y="350.756" fill="#009EE2">r</tspan> <tspan x="109.347" y="350.756" fill="#009EE2" letter-spacing=".242">éda</tspan> <tspan x="306.373" y="350.756" fill="#009EE2" letter-spacing="1.71">c</tspan> <tspan x="365.908" y="350.756" fill="#009EE2" letter-spacing="-.435">t</tspan> <tspan x="407.699" y="350.756" fill="#009EE2" letter-spacing=".242">eur </tspan> <tspan x="623.544" y="350.756" fill="#009EE2">w</tspan> <tspan x="709.644" y="350.756" fill="#009EE2" letter-spacing=".242">eb seo p</tspan> <tspan x="1177.827" y="350.756" fill="#009EE2" letter-spacing=".694">r</tspan> <tspan x="1224.715" y="350.756" fill="#009EE2" letter-spacing=".242">i</tspan> <tspan x="1257.591" y="350.756" fill="#009EE2" letter-spacing="-.21">n</tspan> <tspan x="1327.445" y="350.756" fill="#009EE2" letter-spacing=".242">t </tspan> <tspan x="1405.875" y="350.756" fill="#32433E">-</tspan>
      </text>
    </g>
  </g>
</svg>
