<?xml version="1.0" standalone="no"?>
<!DOCTYPE svg PUBLIC "-//W3C//DTD SVG 20010904//EN"
 "http://www.w3.org/TR/2001/REC-SVG-20010904/DTD/svg10.dtd">
<svg version="1.0" xmlns="http://www.w3.org/2000/svg"
 width="270.000000pt" height="270.000000pt" viewBox="0 0 270.000000 270.000000"
 preserveAspectRatio="xMidYMid meet">
<metadata>
Created by potrace 1.11, written by Peter Selinger 2001-2013
</metadata>
<g transform="translate(0.000000,270.000000) scale(0.100000,-0.100000)"
fill="#000000" stroke="none">
<path d="M1167 2325 c-255 -97 -354 -155 -500 -295 -54 -51 -101 -90 -104 -86
-4 4 5 64 19 134 15 70 25 128 23 130 -9 9 -66 -32 -93 -65 -44 -56 -111 -168
-148 -249 -57 -122 -82 -213 -99 -358 -9 -76 -20 -148 -26 -158 -10 -18 -12
-18 -35 14 -26 35 -63 67 -78 68 -15 0 2 -229 22 -305 l18 -70 126 -3 c119 -2
126 -2 131 18 4 17 13 20 59 20 82 0 85 5 65 92 -10 40 -17 89 -17 109 0 39
14 55 110 126 30 22 79 61 109 86 30 26 59 47 63 47 5 0 77 -59 161 -131 83
-73 178 -149 209 -170 57 -39 108 -64 108 -53 0 3 -29 52 -63 107 -82 131
-113 186 -122 215 -6 22 -5 23 17 11 12 -7 125 -79 251 -161 234 -153 383
-238 417 -238 11 0 20 3 20 6 0 4 -30 54 -66 112 -66 105 -174 302 -174 317 0
24 253 -64 485 -170 l74 -34 3 -138 3 -138 105 -12 c58 -6 130 -12 161 -12 70
-1 69 -4 69 174 0 161 -6 173 -58 122 -70 -68 -76 -50 -27 78 30 78 46 191 36
251 l-6 39 -46 -3 c-33 -3 -49 1 -59 14 -13 15 -9 21 36 63 28 25 92 69 142
96 50 28 90 55 89 60 -6 20 -128 93 -195 115 -54 19 -94 24 -206 27 -77 2
-141 5 -144 7 -7 8 7 41 38 89 18 29 51 61 86 83 49 31 54 38 39 46 -9 6 -77
10 -150 10 -105 -1 -156 -6 -249 -27 -188 -42 -324 -83 -433 -131 -56 -24
-109 -44 -117 -44 -46 0 -28 65 41 145 54 65 54 65 26 65 -15 -1 -81 -21 -146
-45z"/>
<path d="M429 1023 c-29 -16 -55 -21 -111 -21 -136 0 -123 7 -123 -67 0 -69 2
-71 59 -65 10 1 33 -1 51 -4 l33 -6 1 -83 c1 -121 12 -238 25 -267 23 -53 70
-117 100 -136 44 -30 101 -36 328 -35 299 0 326 6 375 79 60 89 93 175 93 246
0 44 5 69 15 80 8 8 15 19 15 24 0 26 75 29 89 5 6 -10 11 -13 11 -8 0 6 5 3
10 -5 5 -8 10 -45 10 -82 0 -60 5 -76 50 -165 70 -138 80 -148 161 -163 61
-12 443 -15 516 -4 64 9 98 32 139 93 58 85 60 98 64 304 2 123 6 128 85 125
25 0 48 2 52 5 3 4 7 33 8 65 2 48 -1 59 -14 60 -9 1 -54 2 -100 3 -63 1 -91
6 -116 21 -31 18 -53 19 -355 18 -301 0 -324 -2 -361 -20 -21 -11 -39 -25 -39
-32 0 -6 -9 -18 -19 -27 -15 -13 -45 -17 -139 -20 l-119 -2 -24 29 c-55 67
-50 66 -407 72 -319 5 -326 5 -363 -17z m634 -54 c42 -22 76 -72 88 -129 23
-110 0 -360 -33 -360 -4 0 -8 -6 -8 -13 0 -7 -14 -21 -30 -31 -27 -16 -59 -17
-290 -17 -246 0 -262 1 -289 20 -56 40 -66 79 -66 251 0 85 3 167 7 181 8 29
53 81 83 98 28 15 509 15 538 0z m1091 -1 c22 -11 75 -64 77 -76 0 -4 3 -16 6
-27 10 -31 15 -265 8 -313 -4 -24 -15 -52 -25 -62 -10 -10 -16 -20 -14 -23 3
-3 -9 -15 -25 -27 -30 -21 -40 -21 -283 -21 -139 0 -258 0 -265 1 -15 0 -77
59 -92 88 -8 15 -11 77 -10 189 1 188 12 226 72 264 30 18 50 19 281 18 155 0
258 -4 270 -11z"/>
<path d="M765 713 c-33 -8 -74 -54 -81 -90 -12 -65 42 -133 106 -133 58 0 110
55 110 116 0 67 -70 122 -135 107z"/>
<path d="M1843 708 c-105 -28 -94 -194 14 -214 78 -15 147 61 124 136 -19 63
-75 95 -138 78z"/>
</g>
</svg>
