<svg xmlns="http://www.w3.org/2000/svg" width="671" height="557" viewBox="0 0 671 557">
  <g fill="none" fill-rule="evenodd">
    <path fill="#1A1919" d="M15.108,352.228 C15.108,352.228 6.068,317.646 5.088,312.474 C3.065,301.805 1.795,284.258 1.795,284.258 C1.423,283.666 0.945,251.064 0.945,251.064 C10.576,248.535 28.563,276.671 28.563,276.671 C28.563,276.671 28.421,279.517 33.236,274.774 C38.052,270.032 39.09,247.436 42.06,220.354 C46.105,183.468 50.419,175.032 58.304,153.377 C65.245,134.315 72.644,120.584 78.274,110.224 C83.904,99.863 95.028,81.604 102.513,71.018 C109.999,60.432 122.462,46.206 132.092,45.889 L117.788,114.018 C117.788,114.018 117.788,119.234 121.187,120.656 C124.586,122.079 142.856,99.791 142.856,99.791 C142.856,99.791 167.5,76.555 183.645,64.226 C199.791,51.896 234.631,33.876 256.725,25.34 C278.819,16.805 323.007,-2.164 331.079,1.156 L307.63,27.667 C307.63,27.667 293.037,46.793 302.612,59.483 C306.011,63.988 352.606,39.487 368.044,35.062 C382.149,30.495 394.872,26.739 405.858,23.681 C426.731,17.87 442.729,14.188 447.922,13.011 C452.807,11.903 472.041,7.54 485.312,5.423 C502.785,2.636 559.809,0.77 568.872,7.636 C568.872,7.636 546.495,20.124 540.547,26.289 C530.548,36.651 515.828,58.24 520.79,66.359 C523.591,70.942 530.306,67.335 553.506,66.833 C559.37,66.707 574.54,66.6 590.87,69.165 C597.69,70.235 610.51,72.327 625.52,78.452 C636.29,82.843 666.74,99.08 669.71,106.904 C647.1,118.399 591.97,147.645 593.77,162.235 C594.2,165.719 595.78,167.603 595.78,167.603 C601.67,174.625 622.97,168.551 622.97,168.551 C627.22,170.686 627.78,189.417 626.16,207.2 C623.56,226.957 619.89,238.825 616.88,246.144 C615.17,250.285 613.77,254.585 611.93,258.651 C607.52,268.374 604.11,273.097 605.7,277.068 C606.22,278.376 607.41,279.369 609.38,280.254 C616.18,283.31 634.87,258.651 634.87,258.651 C641.67,265.29 639.52,291.372 639.4,301.646 C639.36,305.337 639.21,308.302 639.12,309.866 C638.68,317.5 641.91,349.383 632.04,349.383 C626.37,349.383 556.126,342.744 550.461,340.848 C544.796,338.951 550.461,266.871 550.461,266.871 C550.461,266.871 401.186,199.375 394.812,208.859 C388.438,218.343 460.698,329.236 460.698,329.236 C433.193,334.525 271.596,211.23 266.072,217.869 C260.549,224.508 318.475,312.079 318.475,312.079 C290.432,307.969 195.329,213.602 189.593,213.838 C183.857,214.076 160.418,236.837 151.779,243.951 C143.139,251.064 115.026,267.898 111.84,274.774 C108.653,281.65 111.84,301.804 111.84,301.804 L119.913,335.947 C115.664,341.164 84.01,340.215 81.46,342.112 C78.911,344.009 81.46,349.937 81.46,349.937 L15.108,352.228"/>
    <path stroke="#1A1919" d="M15.108,352.228 C15.108,352.228 6.068,317.646 5.088,312.474 C3.065,301.805 1.795,284.258 1.795,284.258 C1.423,283.666 0.945,251.064 0.945,251.064 C10.576,248.535 28.563,276.671 28.563,276.671 C28.563,276.671 28.421,279.517 33.236,274.774 C38.052,270.032 39.09,247.436 42.06,220.354 C46.105,183.468 50.419,175.032 58.304,153.377 C65.245,134.315 72.644,120.584 78.274,110.224 C83.904,99.863 95.028,81.604 102.513,71.018 C109.999,60.432 122.462,46.206 132.092,45.889 L117.788,114.018 C117.788,114.018 117.788,119.234 121.187,120.656 C124.586,122.079 142.856,99.791 142.856,99.791 C142.856,99.791 167.5,76.555 183.645,64.226 C199.791,51.896 234.631,33.876 256.725,25.34 C278.819,16.805 323.007,-2.164 331.079,1.156 L307.63,27.667 C307.63,27.667 293.037,46.793 302.612,59.483 C306.011,63.988 352.606,39.487 368.044,35.062 C382.149,30.495 394.872,26.739 405.858,23.681 C426.731,17.87 442.729,14.188 447.922,13.011 C452.807,11.903 472.041,7.54 485.312,5.423 C502.785,2.636 559.809,0.77 568.872,7.636 C568.872,7.636 546.495,20.124 540.547,26.289 C530.548,36.651 515.828,58.24 520.79,66.359 C523.591,70.942 530.306,67.335 553.506,66.833 C559.37,66.707 574.54,66.6 590.87,69.165 C597.69,70.235 610.51,72.327 625.52,78.452 C636.29,82.843 666.74,99.08 669.71,106.904 C647.1,118.399 591.97,147.645 593.77,162.235 C594.2,165.719 595.78,167.603 595.78,167.603 C601.67,174.625 622.97,168.551 622.97,168.551 C627.22,170.686 627.78,189.417 626.16,207.2 C623.56,226.957 619.89,238.825 616.88,246.144 C615.17,250.285 613.77,254.585 611.93,258.651 C607.52,268.374 604.11,273.097 605.7,277.068 C606.22,278.376 607.41,279.369 609.38,280.254 C616.18,283.31 634.87,258.651 634.87,258.651 C641.67,265.29 639.52,291.372 639.4,301.646 C639.36,305.337 639.21,308.302 639.12,309.866 C638.68,317.5 641.91,349.383 632.04,349.383 C626.37,349.383 556.126,342.744 550.461,340.848 C544.796,338.951 550.461,266.871 550.461,266.871 C550.461,266.871 401.186,199.375 394.812,208.859 C388.438,218.343 460.698,329.236 460.698,329.236 C433.193,334.525 271.596,211.23 266.072,217.869 C260.549,224.508 318.475,312.079 318.475,312.079 C290.432,307.969 195.329,213.602 189.593,213.838 C183.857,214.076 160.418,236.837 151.779,243.951 C143.139,251.064 115.026,267.898 111.84,274.774 C108.653,281.65 111.84,301.804 111.84,301.804 L119.913,335.947 C115.664,341.164 84.01,340.215 81.46,342.112 C78.911,344.009 81.46,349.937 81.46,349.937 L15.108,352.228 Z"/>
    <path fill="#00A3DA" d="M577.33,487.603 C577.33,512.641 558.976,533.126 536.541,533.126 L424.231,533.126 C401.798,533.126 383.442,512.641 383.442,487.603 L383.442,424.308 C383.442,399.27 401.798,378.784 424.231,378.784 L536.541,378.784 C558.976,378.784 577.33,399.27 577.33,424.308 L577.33,487.603 Z M280.602,487.603 C280.602,512.641 262.247,533.126 239.813,533.126 L127.503,533.126 C105.069,533.126 86.714,512.641 86.714,487.603 L86.714,424.308 C86.714,399.27 105.069,378.784 127.503,378.784 L239.813,378.784 C262.247,378.784 280.602,399.27 280.602,424.308 L280.602,487.603 Z M642.76,374.674 C634.26,369.3 595.75,371.221 591.78,371.513 C587.8,371.805 578.78,360.132 561.468,360.132 L405.678,360.132 C390.546,360.132 377.279,369.459 370.24,383.21 C370.238,383.211 364.939,387.492 361.189,387.874 C357.404,388.259 310.486,388.584 304.255,388.268 C298.023,387.952 293.666,382.924 293.666,382.924 L293.667,382.943 C286.593,369.339 273.401,360.132 258.367,360.132 L102.577,360.132 C85.265,360.132 76.242,371.805 72.269,371.513 C68.295,371.221 29.78,369.3 21.282,374.674 C18.745,376.279 19.242,407.671 22.611,408.417 C42.618,412.844 51.338,409.812 56.406,409.45 C61.475,409.086 57.906,483.491 62.921,500.814 C68.869,521.363 88.98,547.287 104.276,551.712 C119.572,556.138 247.921,558.84 269.414,549.499 C282.852,543.66 294.656,521.242 299.156,509.982 C299.156,509.982 310.396,486.948 312.186,479.273 L312.186,451.396 C312.186,440.703 320.025,431.954 329.605,431.954 L333.43,431.954 C343.011,431.954 350.851,440.703 350.851,451.396 L350.845,479.316 C352.115,486.091 365.185,510.758 365.271,510.923 C370.03,522.446 381.556,543.818 394.631,549.499 C416.123,558.84 544.473,556.138 559.769,551.712 C575.06,547.287 595.17,521.363 601.12,500.814 C606.14,483.491 602.57,409.086 607.64,409.45 C612.71,409.812 621.43,412.844 641.43,408.417 C644.8,407.671 645.3,376.279 642.76,374.674 Z"/>
    <path stroke="#00A3DA" d="M577.33,487.603 C577.33,512.641 558.976,533.126 536.541,533.126 L424.231,533.126 C401.798,533.126 383.442,512.641 383.442,487.603 L383.442,424.308 C383.442,399.27 401.798,378.784 424.231,378.784 L536.541,378.784 C558.976,378.784 577.33,399.27 577.33,424.308 L577.33,487.603 Z M280.602,487.603 C280.602,512.641 262.247,533.126 239.813,533.126 L127.503,533.126 C105.069,533.126 86.714,512.641 86.714,487.603 L86.714,424.308 C86.714,399.27 105.069,378.784 127.503,378.784 L239.813,378.784 C262.247,378.784 280.602,399.27 280.602,424.308 L280.602,487.603 Z M642.76,374.674 C634.26,369.3 595.75,371.221 591.78,371.513 C587.8,371.805 578.78,360.132 561.468,360.132 L405.678,360.132 C390.546,360.132 377.279,369.459 370.24,383.21 C370.238,383.211 364.939,387.492 361.189,387.874 C357.404,388.259 310.486,388.584 304.255,388.268 C298.023,387.952 293.666,382.924 293.666,382.924 L293.667,382.943 C286.593,369.339 273.401,360.132 258.367,360.132 L102.577,360.132 C85.265,360.132 76.242,371.805 72.269,371.513 C68.295,371.221 29.78,369.3 21.282,374.674 C18.745,376.279 19.242,407.671 22.611,408.417 C42.618,412.844 51.338,409.812 56.406,409.45 C61.475,409.086 57.906,483.491 62.921,500.814 C68.869,521.363 88.98,547.287 104.276,551.712 C119.572,556.138 247.921,558.84 269.414,549.499 C282.852,543.66 294.656,521.242 299.156,509.982 C299.156,509.982 310.396,486.948 312.186,479.273 L312.186,451.396 C312.186,440.703 320.025,431.954 329.605,431.954 L333.43,431.954 C343.011,431.954 350.851,440.703 350.851,451.396 L350.845,479.316 C352.115,486.091 365.185,510.758 365.271,510.923 C370.03,522.446 381.556,543.818 394.631,549.499 C416.123,558.84 544.473,556.138 559.769,551.712 C575.06,547.287 595.17,521.363 601.12,500.814 C606.14,483.491 602.57,409.086 607.64,409.45 C612.71,409.812 621.43,412.844 641.43,408.417 C644.8,407.671 645.3,376.279 642.76,374.674 Z"/>
    <path fill="#1A1919" d="M212.905 481.53C212.905 498.553 199.398 512.353 182.738 512.353 166.078 512.353 152.571 498.553 152.571 481.53 152.571 464.506 166.078 450.706 182.738 450.706 199.398 450.706 212.905 464.506 212.905 481.53M507.773 481.53C507.773 498.553 494.268 512.353 477.607 512.353 460.946 512.353 447.44 498.553 447.44 481.53 447.44 464.506 460.946 450.706 477.607 450.706 494.268 450.706 507.773 464.506 507.773 481.53"/>
  </g>
</svg>
